<?xml version="1.0" standalone="no"?><!DOCTYPE svg PUBLIC "-//W3C//DTD SVG 1.1//EN" "http://www.w3.org/Graphics/SVG/1.1/DTD/svg11.dtd"><svg t="1589418130532" class="icon" viewBox="0 0 1024 1024" version="1.1" xmlns="http://www.w3.org/2000/svg" p-id="929" xmlns:xlink="http://www.w3.org/1999/xlink" width="200" height="200"><defs><style type="text/css"></style></defs><path d="M512 992C248 992 32 776 32 512S248 32 512 32s480 216 480 480S776 992 512 992zM512 111.99999969C291.99999969 111.99999969 111.99999969 291.99999969 111.99999969 512s180 400.00000031 400.00000031 400.00000031 400.00000031-180 400.00000031-400.00000031S732.00000031 111.99999969 512 111.99999969z" p-id="930"></path><path d="M471.99999969 672.00000031c-12 0-19.99999969-4.00000031-28.00000032-12l-119.99999999-120c-16.00000031-16.00000031-16.00000031-40.00000031 0-55.99999968s40.00000031-16.00000031 55.99999968 0l120 119.99999999c16.00000031 16.00000031 16.00000031 40.00000031 0 55.99999969C492.00000031 668 483.99999969 672.00000031 471.99999969 672.00000031z" p-id="931"></path><path d="M351.99999969 552.00000031c-12 0-19.99999969-4.00000031-28.00000032-12-16.00000031-16.00000031-16.00000031-40.00000031 1e-8-55.99999968l119.99999999-120.00000001c16.00000031-16.00000031 40.00000031-16.00000031 55.99999969 0s16.00000031 40.00000031 0 55.99999969l-120 120C372.00000031 548 363.99999969 552.00000031 351.99999969 552.00000031z" p-id="932"></path><path d="M672.00000031 552.00000031L351.99999969 552.00000031c-24 0-40.00000031-16.00000031-40.00000032-40.00000031s16.00000031-40.00000031 40.00000032-40.00000031l319.99999969 0c24 0 40.00000031 16.00000031 40.00000031 40.00000031S696.00000031 552.00000031 672.00000031 552.00000031z" p-id="933"></path></svg>