<?xml version="1.0" standalone="no"?><!DOCTYPE svg PUBLIC "-//W3C//DTD SVG 1.1//EN" "http://www.w3.org/Graphics/SVG/1.1/DTD/svg11.dtd"><svg t="1588037727974" class="icon" viewBox="0 0 1024 1024" version="1.1" xmlns="http://www.w3.org/2000/svg" p-id="1195" xmlns:xlink="http://www.w3.org/1999/xlink" width="200" height="200"><defs><style type="text/css"></style></defs><path d="M733.865 362.666" p-id="1196"></path><path d="M597.332 319.999" p-id="1197"></path><path d="M117.84 704.958c-26.88-33.28-57.6 2.8-44.8 20 3.76 4.64-0.245-0.37 3.76 4.64 0 0 0-4.267 0 0 93.866 153.6 255.999 251.733 435.199 251.733 268.799 0 490.665-221.866 490.665-490.665S780.798 0 511.999 0 21.333 221.866 21.333 490.665c0 4.267 0 8.533 0 17.067l0 8.533c0 12.8 12.8 21.333 21.333 21.333 12.8 0 21.333-8.533 21.333-21.333l0-8.533c0-4.267 0-8.533 0-12.8C64 247.466 264.533 46.933 511.999 46.933s447.999 196.266 447.999 443.732S759.465 938.664 511.999 938.664c-162.133 0-311.466-89.6-392.532-230.399L117.84 704.958" p-id="1198"></path><path d="M490.36288 620.18048 354.37568 620.18048l0-27.73504 135.99232 0 0-51.42016L354.37568 541.02528l0-27.74016 120.42752 0L308.36736 259.57376l46.68416 0 91.33568 145.4592 62.24384 102.15936 2.70336 0c25.70752-39.91552 39.92064-64.95232 62.24384-102.15936l91.33568-145.4592 46.00832 0-165.76 253.71136 120.42752 0 0 27.74016-135.99232 0 0 51.42016 135.99232 0 0 27.73504-135.99232 0 0 120.42752-39.23968 0L490.35776 620.18048z" p-id="1199"></path></svg>