<?xml version="1.0" standalone="no"?><!DOCTYPE svg PUBLIC "-//W3C//DTD SVG 1.1//EN" "http://www.w3.org/Graphics/SVG/1.1/DTD/svg11.dtd"><svg t="1588037731307" class="icon" viewBox="0 0 1039 1024" version="1.1" xmlns="http://www.w3.org/2000/svg" p-id="1328" xmlns:xlink="http://www.w3.org/1999/xlink" width="202.9296875" height="200"><defs><style type="text/css"></style></defs><path d="M471.2908475 991.99157094c-242.59399781 0-439.25802844-196.44587062-439.25802844-438.79262063 0-242.34674906 196.66403063-438.80716406 439.25802844-438.80716406 11.40249937 0 22.6159275 0.82900781 33.78572344 1.68710438v387.74316375h402.86892844c1.67256094 15.53299687 2.60337656 33.40757906 2.60337656 49.37689593 0 242.34674906-196.66403063 438.79262062-439.25802844 438.79262063zM453.15447406 164.56860219c-203.32518469 10.96617937-364.95270844 178.920345-364.95270843 385.11069937 0 213.25874063 172.78277531 386.17241156 385.95425156 386.17241156 210.82989094 0 381.89647406-169.23403781 385.59065062-379.30764187H453.15447406V164.56860219z" p-id="1329"></path><path d="M588.28282156 468.32013969H1006.56839469c0-0.50904-0.04363219-1.00353656-0.04363219-1.49803313v-42.09034875h-2.15251219C982.42534719 204.55007094 796.46570375 32.58176 570.26279938 32.58176c-11.32977938 0-18.04911-0.98899219-29.146185-0.13089562V468.32013969h47.16620718z m0-385.91061938c188.56302 10.18080281 340.91146875 156.3044175 360.31317094 342.3222375H588.28282156V82.40952031z" p-id="1330"></path></svg>