<?xml version="1.0" standalone="no"?><!DOCTYPE svg PUBLIC "-//W3C//DTD SVG 1.1//EN" "http://www.w3.org/Graphics/SVG/1.1/DTD/svg11.dtd"><svg t="1588037722243" class="icon" viewBox="0 0 1025 1024" version="1.1" xmlns="http://www.w3.org/2000/svg" p-id="1064" xmlns:xlink="http://www.w3.org/1999/xlink" width="200.1953125" height="200"><defs><style type="text/css"></style></defs><path d="M960.32310313 551.84757312L508.24149781 99.81338375c-37.88835469-37.88835469-109.55332031-67.61887219-163.14216937-67.66142437l-204.88574157-0.15197157-0.08510437 0c-31.91404594 0-62.05306219 11.82096281-82.64461219 32.431965-16.45548937 16.45548937-25.50813656 37.41298781-25.48382156 59.02213969l0.04255219 69.80726344 43.30219312-0.024315-0.04255219-69.84495281c0-12.84099656 6.95300719-22.51976625 12.79479657-28.36641938 12.36562875-12.33645 31.80948937-19.72348781 52.03144406-19.72348781l0.06078844 0 204.89182031 0.15197156c42.0669675 0.024315 102.77538469 25.20419344 132.54723844 54.97118344l452.0779575 452.05850531c25.33185 25.33185 25.33185 66.53561812 0 91.86746813L674.35137031 929.73054219c-25.33185 25.30631813-66.53561812 25.30631813-91.86746812 0L130.38284469 477.58571656c-32.36996062-32.36996062-54.90431625-79.65624187-54.92863125-101.84896593l-0.0231-55.90246594-43.30340906 0.01945219 0.024315 55.90611374c0 36.37350188 29.70620156 94.55067938 67.61765625 132.43903407l452.12050968 452.14360969c21.10946906 21.110685 48.82545 31.65751781 76.53656813 31.65751781 27.73908094 0 55.45019813-10.566285 83.04581812-35.710905l255.35491688-255.37437C1002.54325812 662.76863844 1002.54325812 594.06772813 960.32310313 551.84757312L960.32310313 551.84757312zM960.32310313 551.84757312" p-id="1065"></path><path d="M296.49271719 417.65174656c-31.22105531 0-60.57954563-12.16745812-82.68716438-34.25076187-45.55380469-45.57690469-45.57690469-119.75365688 0-165.35001375 22.10761969-22.08330375 51.46611-34.23130969 82.68716438-34.23130969 31.21983937 0 60.56009344 12.14800594 82.64339718 34.20820969 45.55380469 45.59635687 45.55380469 119.77675688 0.01945219 165.35001375C357.07226281 405.48428938 327.71255656 417.65174656 296.49271719 417.65174656L296.49271719 417.65174656zM296.49271719 227.12185531c-19.66148344 0-38.14974656 7.66545-52.06913344 21.54228469-28.68981563 28.68981563-28.68981563 75.39252563 0 104.1005775 27.81932156 27.80108531 76.29827625 27.80108531 104.11881375 0 28.66549969-28.68859969 28.66549969-75.39252563 0-104.11881375C334.62301063 234.78730531 316.12988562 227.12185531 296.49271719 227.12185531L296.49271719 227.12185531zM296.49271719 227.12185531" p-id="1066"></path></svg>